<?xml version="1.0" encoding="UTF-8" standalone="no"?>
<svg
   viewBox="0 0 320 512"
   version="1.1"
   id="svg4"
   sodipodi:docname="euro.svg"
   inkscape:version="1.2.2 (b0a8486541, 2022-12-01)"
   xmlns:inkscape="http://www.inkscape.org/namespaces/inkscape"
   xmlns:sodipodi="http://sodipodi.sourceforge.net/DTD/sodipodi-0.dtd"
   xmlns="http://www.w3.org/2000/svg"
   xmlns:svg="http://www.w3.org/2000/svg">
  <defs
     id="defs8" />
  <sodipodi:namedview
     id="namedview6"
     pagecolor="#ffffff"
     bordercolor="#000000"
     borderopacity="0.25"
     inkscape:showpageshadow="2"
     inkscape:pageopacity="0.0"
     inkscape:pagecheckerboard="0"
     inkscape:deskcolor="#d1d1d1"
     showgrid="false"
     inkscape:zoom="0.4609375"
     inkscape:cx="-192"
     inkscape:cy="257.08475"
     inkscape:window-width="1920"
     inkscape:window-height="1176"
     inkscape:window-x="0"
     inkscape:window-y="24"
     inkscape:window-maximized="1"
     inkscape:current-layer="svg4" />
  <!--! Font Awesome Pro 6.4.0 by @fontawesome - https://fontawesome.com License - https://fontawesome.com/license (Commercial License) Copyright 2023 Fonticons, Inc. -->
  <path
     d="M48.1 240c-.1 2.7-.1 5.3-.1 8v16c0 2.7 0 5.3 .1 8H32c-17.7 0-32 14.3-32 32s14.3 32 32 32H60.3C89.9 419.9 170 480 264 480h24c17.7 0 32-14.3 32-32s-14.3-32-32-32H264c-57.9 0-108.2-32.4-133.9-80H256c17.7 0 32-14.3 32-32s-14.3-32-32-32H112.2c-.1-2.6-.2-5.3-.2-8V248c0-2.7 .1-5.4 .2-8H256c17.7 0 32-14.3 32-32s-14.3-32-32-32H130.1c25.7-47.6 76-80 133.9-80h24c17.7 0 32-14.3 32-32s-14.3-32-32-32H264C170 32 89.9 92.1 60.3 176H32c-17.7 0-32 14.3-32 32s14.3 32 32 32H48.1z"
     id="path2"
     style="fill:#d2d2d8;fill-opacity:1" />
</svg>
