<?xml version="1.0" encoding="UTF-8" standalone="no"?>
<!-- Created with Inkscape (http://www.inkscape.org/) -->

<svg
   width="6233.333"
   height="799.99994"
   viewBox="0 0 1649.2359 211.66665"
   version="1.1"
   id="svg5"
   inkscape:version="1.2.2 (b0a8486541, 2022-12-01)"
   sodipodi:docname="LogoV2 (copy 1).svg"
   xml:space="preserve"
   inkscape:export-filename="Logo.png"
   inkscape:export-xdpi="96"
   inkscape:export-ydpi="96"
   xmlns:inkscape="http://www.inkscape.org/namespaces/inkscape"
   xmlns:sodipodi="http://sodipodi.sourceforge.net/DTD/sodipodi-0.dtd"
   xmlns="http://www.w3.org/2000/svg"
   xmlns:svg="http://www.w3.org/2000/svg"><sodipodi:namedview
     id="namedview7"
     pagecolor="#ffffff"
     bordercolor="#000000"
     borderopacity="0.25"
     inkscape:showpageshadow="2"
     inkscape:pageopacity="0.0"
     inkscape:pagecheckerboard="0"
     inkscape:deskcolor="#d1d1d1"
     inkscape:document-units="mm"
     showgrid="false"
     inkscape:zoom="0.13716686"
     inkscape:cx="4687.7212"
     inkscape:cy="2285.5375"
     inkscape:window-width="1920"
     inkscape:window-height="1056"
     inkscape:window-x="0"
     inkscape:window-y="24"
     inkscape:window-maximized="1"
     inkscape:current-layer="g86" /><defs
     id="defs2" /><g
     inkscape:label="Layer 1"
     inkscape:groupmode="layer"
     id="layer1"><g
       style="fill:#000000"
       id="g86"
       transform="matrix(3.8883872,0,0,3.8883872,-0.378557,-5.1758368)"><path
         d="M 54.201391,28.486784 A 26.850695,26.850695 0 1 1 27.350695,1.636089 26.850695,26.850695 0 0 1 54.201391,28.486784 Z m -9.646113,-7.675942 a 2.6951385,2.6951385 0 0 0 -2.685069,-2.68507 h -6.893916 v -0.84244 a 2.6917822,2.6917822 0 0 0 -2.68507,-2.68507 h -9.834067 a 2.6917822,2.6917822 0 0 0 -2.685069,2.68507 v 0.839084 h -6.900629 a 2.6917822,2.6917822 0 0 0 -2.68507,2.685069 v 17.338837 a 2.6917822,2.6917822 0 0 0 2.68507,2.68507 h 28.995395 a 2.6951385,2.6951385 0 0 0 2.685069,-2.68507 z m -9.035259,8.666062 a 8.1458297,8.1458297 0 1 1 -8.149186,-8.14583 8.149186,8.149186 0 0 1 8.149186,8.14583 z m -13.609946,0 a 5.4607602,5.4607602 0 1 0 5.46076,-5.46076 5.4708292,5.4708292 0 0 0 -5.457403,5.46076 z M 31.14,16.283143 A 1.3425348,1.3425348 0 1 0 32.482535,17.625678 1.3425348,1.3425348 0 0 0 31.14,16.283143 Z"
         id="path2"
         style="fill:#ffffff;fill-opacity:1;stroke-width:3.35634" /><text
         xml:space="preserve"
         style="font-size:36.2904px;fill:#1a1a1a;fill-opacity:1;stroke-width:0.659657;stroke-dasharray:none"
         x="68.442055"
         y="39.640511"
         id="text983"><tspan
           sodipodi:role="line"
           id="tspan981"
           style="font-style:normal;font-variant:normal;font-weight:bold;font-stretch:normal;font-size:36.2904px;font-family:monospace;-inkscape-font-specification:'monospace Bold';fill:#fdfdfd;fill-opacity:1;stroke-width:0.659657;stroke-dasharray:none"
           x="68.442055"
           y="39.640511"><tspan
             style="font-style:normal;font-variant:normal;font-weight:bold;font-stretch:normal;font-size:36.2904px;font-family:'Noto Sans';-inkscape-font-specification:'Noto Sans Bold';fill:#fdfdfd;fill-opacity:1;stroke-width:0.659657;stroke-dasharray:none"
             id="tspan1122"><tspan
   style="font-size:36.2904px;fill:#fdfdfd;fill-opacity:1;stroke:#ffffff;stroke-width:0.659657;stroke-dasharray:none;stroke-opacity:1"
   id="tspan1242">braun</tspan> </tspan><tspan
             style="font-style:normal;font-variant:normal;font-weight:normal;font-stretch:normal;font-size:36.2904px;font-family:'Noto Sans';-inkscape-font-specification:'Noto Sans';fill:#fdfdfd;fill-opacity:1;stroke-width:0.659657;stroke-dasharray:none"
             id="tspan1107">Photography</tspan></tspan></text></g></g></svg>
