<?xml version="1.0" encoding="UTF-8" standalone="no"?>
<svg
   viewBox="0 0 2048 850"
   version="1.1"
   id="svg4"
   sodipodi:docname="sepa.svg"
   width="2048"
   height="850"
   inkscape:version="1.2.2 (b0a8486541, 2022-12-01)"
   xmlns:inkscape="http://www.inkscape.org/namespaces/inkscape"
   xmlns:sodipodi="http://sodipodi.sourceforge.net/DTD/sodipodi-0.dtd"
   xmlns="http://www.w3.org/2000/svg"
   xmlns:svg="http://www.w3.org/2000/svg">
  <defs
     id="defs8" />
  <sodipodi:namedview
     id="namedview6"
     pagecolor="#ffffff"
     bordercolor="#000000"
     borderopacity="0.25"
     inkscape:showpageshadow="2"
     inkscape:pageopacity="0.0"
     inkscape:pagecheckerboard="0"
     inkscape:deskcolor="#d1d1d1"
     showgrid="false"
     inkscape:zoom="0.17756361"
     inkscape:cx="1033.4325"
     inkscape:cy="672.99826"
     inkscape:window-width="1920"
     inkscape:window-height="1176"
     inkscape:window-x="0"
     inkscape:window-y="24"
     inkscape:window-maximized="1"
     inkscape:current-layer="svg4" />
  <path
     d="M 466.33,322.61144 H 329.114 c 0.22,-2.344 0.347,-5.068 0.347,-7.82 0,-13.596 -3.072,-26.473 -8.562,-37.975 l 0.23,0.533 q -12.29,-16.998 -67.585,-16.998 c -3.994,-0.34 -8.642,-0.533 -13.336,-0.533 -20.8,0 -40.715,3.8 -59.084,10.745 l 1.15,-0.382 q -17.408,9.83 -17.408,43.008 c -0.28,1.837 -0.44,3.956 -0.44,6.112 0,13.365 6.127,25.3 15.723,33.15 l 0.076,0.06 c 8.448,4.76 18.494,7.685 29.197,7.985 l 0.09,0.002 27.65,2.048 q 89.087,5.94 111.205,8.192 c 39.01,0.963 74.58,14.938 102.718,37.728 l -0.318,-0.25 c 16.33,15.823 27.223,37.17 29.66,61.02 l 0.036,0.42 c 1.83,14.918 2.872,32.186 2.872,49.7 0,0.67 -0.002,1.343 -0.005,2.014 v -0.104 c 0.26,4.46 0.408,9.68 0.408,14.932 0,29.41 -4.644,57.735 -13.238,84.283 l 0.54,-1.934 q -22.937,56.32 -102.4,71.27 c -26.622,4.14 -57.33,6.506 -88.59,6.506 -4.855,0 -9.698,-0.057 -14.526,-0.17 l 0.718,0.012 c -8.064,0.368 -17.52,0.577 -27.024,0.577 -47.382,0 -93.547,-5.208 -137.954,-15.084 l 4.21,0.786 c -34.75,-9.084 -62.025,-34.667 -73.304,-67.665 l -0.22,-0.738 c -7.373,-25.818 -11.614,-55.47 -11.614,-86.112 0,-3.424 0.053,-6.835 0.158,-10.233 l -0.012,0.497 h 137.42 v 11.47 q 0,35.634 20.48,45.874 c 9.89,4.657 21.48,7.376 33.705,7.376 0.247,0 0.494,0 0.74,-0.003 h 50.548 c 3.13,0.19 6.787,0.3 10.47,0.3 13.778,0 27.2,-1.527 40.105,-4.42 l -1.217,0.228 c 11.436,-4.053 20.36,-12.71 24.684,-23.684 l 0.096,-0.278 c 1.977,-7.1 3.113,-15.253 3.113,-23.67 0,-0.967 -0.014,-1.93 -0.044,-2.89 l 0.003,0.14 q 0,-36.25 -26.42,-44.03 c -26.52,-4.24 -58.234,-7.32 -90.42,-8.556 l -1.535,-0.047 q -65.946,-4.71 -91.546,-9.01 -67.38,-12.7 -89.703,-52.02 c -13.114,-26.248 -20.79,-57.18 -20.79,-89.907 0,-3.962 0.113,-7.898 0.335,-11.805 l -0.025,0.542 c -0.07,-2.27 -0.11,-4.937 -0.11,-7.615 0,-26.49 3.93,-52.06 11.243,-76.16 l -0.484,1.855 c 6.182,-19.597 18.26,-35.85 34.127,-47.12 l 0.28,-0.19 c 25.05,-16.915 55.585,-27.562 88.503,-29.067 l 0.38,-0.014 q 45.056,-3.89 99.942,-3.89 c 5.71,-0.22 12.414,-0.343 19.148,-0.343 36.705,0 72.546,3.704 107.167,10.758 l -3.435,-0.585 q 89.702,24.166 89.702,134.963 c 0,6.144 0,15.155 -1.434,27.238 z m 603.955,373.554 v -548.454 h 275.046 c 3.217,-0.12 6.995,-0.19 10.788,-0.19 26.796,0 52.79,3.432 77.57,9.878 l -2.137,-0.472 c 43.183,12.35 76.87,44.686 90.86,86.096 l 0.277,0.944 c 7.848,27.086 12.36,58.2 12.36,90.365 0,4.81 -0.1,9.595 -0.3,14.355 l 0.023,-0.68 c 0.265,5.35 0.416,11.62 0.416,17.923 0,36.325 -5.012,71.48 -14.38,104.81 l 0.652,-2.722 c -16.138,46.305 -57.955,79.575 -107.966,82.924 l -0.373,0.02 q -9.627,1.638 -81.92,2.867 h -112.64 v 141.517 z m 147.66,-268.902 h 92.775 c 1.87,0.077 4.067,0.12 6.273,0.12 16.75,0 32.915,-2.514 48.136,-7.185 l -1.162,0.306 c 9.588,-6.453 16.138,-16.79 17.393,-28.705 l 0.016,-0.172 c 1.862,-11.273 2.925,-24.264 2.925,-37.503 0,-1.863 -0.02,-3.722 -0.062,-5.575 v 0.276 c 0.094,-2.155 0.148,-4.683 0.148,-7.224 0,-15.775 -2.07,-31.067 -5.957,-45.618 l 0.28,1.232 c -5.944,-16.035 -20.522,-27.52 -37.942,-28.867 l -0.15,-0.01 h -122.675 z m 631.81,174.08 H 1652.53 l -26.42,94.822 h -152.78 l 163.84,-548.454 h 223.437 l 166.91,548.454 h -149.503 z m -29.288,-106.906 -69.018,-237.568 -67.175,237.568 z M 866.51,224.92144 h 0.12 c 60.724,0 114.937,27.877 150.538,71.532 l 0.278,0.35 31.744,-68.197 c -49.95,-47.1 -117.468,-76.05 -191.747,-76.05 -114.713,0 -213.3,69.044 -256.473,167.842 l -0.702,1.802 h -61.44 l -37.07,79.257 h 79.873 v 21.914 c 0.037,9.424 0.557,18.68 1.537,27.798 l -0.102,-1.173 h -40.96 l -36.66,78.643 h 97.076 c 44.062,98.037 140.857,165.073 253.31,165.073 0.514,0 1.028,0 1.542,-0.003 h -0.08 l 1.005,0.002 c 57.523,0 110.99,-17.362 155.45,-47.13 l -1.012,0.638 v -96.256 c -35.77,40.74 -87.962,66.316 -146.126,66.316 -67.836,0 -127.546,-34.79 -162.26,-87.5 l -0.453,-0.73 h 203.366 l 36.66,-78.643 H 673.79 c -1.325,-8.582 -2.082,-18.482 -2.082,-28.558 0,-7.18 0.385,-14.273 1.134,-21.255 l -0.075,0.866 H 966.45 l 37.07,-79.258 H 698.16 c 34.195,-58.605 96.73,-97.384 168.33,-97.485 h 0.016 z"
     id="path2"
     style="fill:#d2d2d8;fill-opacity:1" />
</svg>
